<svg height="18" viewBox="0 0 1600 1600" width="18" xmlns="http://www.w3.org/2000/svg" ><g fill="#fff"><g enable-background="new" transform="matrix(100 0 0 100 -19800 -68400)"><path d="m112 515v2h-1v4h1v2h2v-8zm10 0v8h2v-2h1v-4h-1v-2zm-7 3v2h6v-2z" transform="translate(88 170)"/><path d="m203 691v5c0 .5.25 1 1 1s1-.5 1-1v-1c0-.5.53412-1 1-1 .55229 0 1 .44772 1 1v2.5c0 .82843.67157 1.5 1.5 1.5s1.5-.67157 1.5-1.5v-.5c0-.55228.44772-1 1-1 .55229 0 1-.44771 1-1v-1h-3v-3z" opacity=".6"/></g></g></svg>